<svg xmlns="http://www.w3.org/2000/svg"
 width="1024" height="1024" viewBox="0 0 1024 1024" preserveAspectRatio="xMidYMid meet">

  <g transform="translate(0,1024) scale(0.1,-0.1)" fill="#CC8105" stroke="none">
    <path d="M2962 8239 c-312 -52 -622 -365 -756 -763 -57 -169 -71 -271 -71-511 0 -190 3 -236 23 -334 105 -520 378 -986 862 -1471 151 -152 451 -410 476 -410 112 0 829 -94 887 -116 13 -5 17 0 17 22 0 33 -52 347 -101 618 l-33 179 -158 104 c-87 57 -200 128 -251 159 -50 31 -101 62 -112 69 -18 12 -26 9 -77 -28 -31 -23 -57 -45 -57 -49 -1 -3 88 -72 197 -153 108 -80 205 -152 215 -160 13 -11 17 -30 17 -76 l0 -61 -37 23 c-346 205 -686 520 -901 832 -130 190 -253 472 -303 697 -72 324 -33 673 96 875 80 126 180 189 300 189 94 0 163 -33 238 -114 117 -126 123 -297 13 -398 -99 -91 -244 -74 -326 39 l-30 42 0 -42 c0 -81 49 -155 134 -199 43 -22 64 -26 136 -26 75 -1 93 3 150 30 294 141 323 572 57 844 -101 102 -216 167 -341 191 -59 11 -191 10 -264 -2z"/>
    <path d="M7235 8231 c-247 -60 -428 -248 -479 -494 -39 -186 1 -341 117 -457 27 -28 73 -61 102 -75 179 -84 392 0 423 167 10 49 0 88 -12 50 -17 -53 -129 -122 -197 -122 -78 0 -166 60 -200 135 -43 94 -14 234 68 325 200 222 496 112 615 -230 66 -189 74 -456 22 -708 -27 -131 -94 -318 -164 -460 -118 -238 -247 -412 -464 -627 -164 -163 -334 -296 -558 -439 l-58 -37 0 66 0 65 99 73 c55 39 152 110 216 157 l116 85 -38 32 c-69 58 -76 60 -136 27 -74 -40 -422 -263 -458 -294 -28 -25 -30 -31 -88 -380 -33 -195 -62 -378 -66 -406 l-7 -52 74 14 c133 27 390 62 618 85 l225 23 120 97 c270 215 533 482 717 724 245 323 434 732 494 1068 37 207 36 460 -2 643 -67 325 -247 633 -467 800 -83 62 -226 131 -312 149 -92 19 -233 18 -320 -4z"/>
    <path d="M5175 6473 c-113 -140 -126 -153 -149 -153 -47 0 -330 -73 -482 -124 -88 -30 -219 -80 -290 -111 -164 -72 -434 -212 -434 -225 0 -3 87 -50 193 -104 514 -264 903 -495 1158 -687 l75 -57 80 60 c244 184 733 476 1131 676 169 84 210 109 200 119 -18 18 -367 193 -472 237 -198 83 -553 190 -698 211 -48 7 -51 10 -143 126 -52 66 -96 119 -97 119 -1 0 -33 -39 -72 -87z"/>
    <path d="M4460 5322 c0 -10 15 -104 34 -208 19 -104 46 -270 62 -369 l27 -180 59 -30 c33 -17 78 -42 101 -57 23 -15 42 -26 44 -25 1 2 -11 79 -27 172 -27 155 -32 207 -13 159 11 -30 105 -194 145 -252 71 -105 311 -352 350 -360 8 -1 73 53 145 122 141 136 226 245 310 403 52 96 53 97 52 58 0 -22 -10 -97 -23 -167 -12 -71 -21 -128 -20 -128 2 0 44 23 95 50 51 28 96 50 100 50 10 0 13 14 34 160 9 63 34 224 56 358 22 133 39 247 37 253 -7 20 -406 -266 -646 -464 l-133 -109 -92 76 c-181 150 -669 506 -693 506 -2 0 -4 -8 -4 -18z"/>
    <path d="M3560 4623 c0 -6 20 -90 44 -185 25 -95 74 -326 111 -513 77 -393 44 -329 261 -505 331 -268 323 -260 330 -310 4 -25 12 -60 20 -78 l13 -32 -47 32 c-51 34 -223 165 -311 236 -29 24 -55 41 -58 38 -5 -4 44 -187 111 -416 l33 -114 80 -66 c44 -36 140 -112 214 -170 112 -88 177 -139 358 -284 17 -13 21 -49 -48 454 -28 201 -59 448 -71 550 -12 101 -22 186 -24 187 -2 2 -56 24 -121 48 -139 53 -298 135 -401 207 l-74 52 -34 110 c-19 61 -41 133 -49 160 l-14 50 80 95 c44 53 86 97 94 99 21 5 223 -26 309 -49 229 -59 472 -188 637 -339 55 -51 67 -58 63 -39 -65 293 -88 340 -210 433 -161 123 -364 214 -601 271 -192 45 -695 102 -695 78z"/>
    <path d="M6790 4623 c-309 -30 -437 -49 -600 -90 -306 -76 -622 -264 -685 -408 -24 -54 -59 -182 -70 -254 l-7 -43 76 65 c251 214 558 345 871 372 l70 6 75 -95 c55 -70 75 -103 74 -123 -1 -16 -19 -88 -40 -162 l-39 -133 -85 -57 c-103 -69 -289 -164 -422 -216 -54 -21 -98 -43 -98 -49 0 -64 -119 -1019 -145 -1160 l-5 -28 38 28 c62 47 216 169 428 341 l200 162 73 262 c40 144 70 264 67 266 -3 3 -70 -46 -148 -109 -223 -178 -273 -214 -263 -192 4 10 16 50 26 89 10 38 27 76 37 85 11 8 104 85 208 170 104 86 210 171 236 190 38 29 48 42 53 75 26 158 152 756 183 873 l39 142 -56 -2 c-31 0 -72 -3 -91 -5z"/>
  </g>
</svg>
