<?xml version="1.0" standalone="no"?>
<!DOCTYPE svg PUBLIC "-//W3C//DTD SVG 20010904//EN"
 "http://www.w3.org/TR/2001/REC-SVG-20010904/DTD/svg10.dtd">
<svg version="1.0" xmlns="http://www.w3.org/2000/svg"
 width="636.000000pt" height="618.000000pt" viewBox="0 0 636.000000 618.000000"
 preserveAspectRatio="xMidYMid meet">

<g transform="translate(0.000000,618.000000) scale(0.100000,-0.100000)"
fill="#CC8105" stroke="none">
<path d="M898 6100 c-321 -54 -626 -361 -762 -764 -57 -169 -71 -271 -71 -511
0 -245 14 -341 80 -559 157 -519 542 -1049 1105 -1522 157 -131 157 -131 235
-139 358 -34 771 -89 828 -111 13 -5 17 0 17 22 0 33 -52 347 -101 618 l-33
179 -158 104 c-87 57 -200 128 -251 159 -50 31 -101 62 -112 69 -18 12 -26 9
-77 -28 -31 -23 -57 -45 -57 -49 -1 -3 88 -72 196 -153 109 -80 206 -152 216
-160 13 -11 17 -30 17 -75 l0 -61 -47 27 c-236 135 -560 412 -746 637 -226
273 -379 577 -448 887 -72 324 -33 673 96 875 80 126 180 189 300 189 94 0
163 -33 238 -114 117 -126 123 -297 13 -398 -99 -91 -244 -74 -326 39 l-30 42
0 -42 c0 -81 49 -155 134 -199 43 -22 64 -26 136 -26 75 -1 93 3 150 30 294
141 323 572 57 844 -101 102 -216 167 -341 191 -57 11 -191 10 -258 -1z"/>
<path d="M5165 6091 c-196 -48 -360 -184 -439 -364 -30 -67 -56 -188 -56 -259
1 -271 219 -477 452 -429 109 23 189 97 206 193 10 49 0 88 -12 50 -17 -53
-129 -122 -197 -122 -78 0 -166 60 -200 135 -44 96 -14 236 72 330 150 163
371 142 516 -50 144 -191 190 -540 117 -893 -44 -211 -168 -501 -298 -695
-203 -303 -517 -598 -878 -825 l-68 -42 0 65 0 65 99 73 c55 39 152 110 216
157 l116 85 -38 32 c-69 58 -76 60 -136 27 -74 -40 -422 -263 -458 -294 -28
-25 -30 -31 -88 -380 -33 -195 -62 -378 -66 -406 l-7 -52 74 14 c133 27 390
62 618 85 l225 23 100 80 c281 224 550 494 737 741 245 323 434 732 494 1068
64 358 19 716 -127 1011 -70 141 -140 237 -249 346 -132 131 -276 212 -424
239 -86 16 -220 12 -301 -8z"/>
<path d="M3105 4333 c-113 -140 -126 -153 -149 -153 -47 0 -330 -73 -486 -126
-91 -31 -233 -86 -315 -123 -148 -65 -405 -200 -405 -211 0 -3 87 -50 192
-104 212 -109 612 -329 753 -414 118 -71 311 -201 405 -272 l75 -57 95 69
c266 195 730 472 1118 666 212 106 212 107 190 124 -36 29 -413 213 -523 256
-199 79 -501 167 -640 188 -45 6 -50 10 -141 125 -52 66 -96 119 -97 119 -1 0
-33 -39 -72 -87z"/>
<path d="M2390 3182 c0 -10 15 -104 34 -208 19 -104 47 -271 62 -370 l27 -182
59 -28 c32 -15 78 -40 100 -56 23 -15 43 -26 45 -25 1 2 -11 79 -27 172 -16
93 -27 171 -26 173 2 2 27 -40 55 -93 67 -126 124 -210 202 -298 78 -88 230
-231 251 -235 8 -1 73 53 145 122 141 136 226 245 310 403 52 96 53 97 52 58
0 -22 -10 -97 -23 -168 -12 -70 -20 -126 -17 -125 58 29 197 101 200 104 2 1
14 76 27 166 13 90 40 259 60 375 19 117 34 218 32 223 -7 21 -404 -264 -646
-463 l-133 -109 -95 79 c-184 150 -630 477 -686 501 -5 2 -8 -5 -8 -16z"/>
<path d="M1490 2483 c0 -6 20 -90 44 -185 25 -95 74 -326 111 -513 77 -393 44
-329 261 -505 331 -268 323 -260 330 -310 4 -25 12 -60 20 -78 l13 -32 -57 39
c-31 21 -124 91 -207 155 -82 64 -151 113 -153 108 -2 -7 27 -115 109 -406
l34 -119 220 -176 c121 -96 263 -209 315 -250 52 -42 103 -82 114 -90 23 -17
28 -68 -43 449 -28 201 -59 448 -71 550 -12 101 -22 186 -24 187 -2 2 -56 24
-121 48 -139 53 -298 135 -401 207 l-74 52 -34 110 c-19 61 -41 133 -49 160
l-14 50 80 95 c44 53 86 97 94 99 21 5 223 -26 309 -49 229 -59 472 -188 637
-339 55 -51 67 -58 63 -39 -66 296 -90 344 -217 439 -167 124 -366 212 -609
269 -181 42 -680 97 -680 74z"/>
<path d="M4715 2483 c-16 -2 -95 -10 -175 -19 -277 -30 -461 -71 -640 -143
-229 -93 -418 -230 -465 -336 -24 -54 -59 -182 -70 -254 l-7 -43 76 65 c224
190 474 308 760 357 182 31 169 35 256 -75 55 -69 75 -102 74 -122 -1 -16 -19
-88 -40 -162 l-39 -133 -85 -57 c-103 -69 -289 -164 -422 -216 -54 -21 -98
-43 -98 -49 0 -64 -119 -1019 -145 -1160 l-5 -28 38 28 c62 47 216 169 428
341 l200 162 73 262 c40 144 70 264 67 266 -3 3 -70 -46 -148 -109 -223 -178
-273 -214 -263 -192 4 10 16 50 26 87 15 58 24 74 60 105 70 61 391 322 431
350 28 21 38 36 43 67 24 146 151 755 183 873 l39 142 -61 -1 c-34 -1 -74 -4
-91 -6z"/>
</g>
</svg>
